<?xml version="1.0" encoding="UTF-8"?>
<svg id="OBJECTS" xmlns="http://www.w3.org/2000/svg" xmlns:xlink="http://www.w3.org/1999/xlink" version="1.1" viewBox="0 0 1080 1080">
  <defs>
    <style>
      .cls-1 {
        clip-path: url(#clippath);
      }

      .cls-2 {
        fill: none;
      }

      .cls-2, .cls-3 {
        stroke-width: 0px;
      }

      .cls-4 {
        clip-path: url(#clippath-1);
      }

      .cls-5 {
        clip-path: url(#clippath-2);
      }

      .cls-3 {
        fill: #fff;
      }
    </style>
    <clipPath id="clippath">
      <rect class="cls-2" x="-1100" width="1080" height="1080"/>
    </clipPath>
    <clipPath id="clippath-1">
      <circle class="cls-2" cx="540" cy="540" r="540"/>
    </clipPath>
    <clipPath id="clippath-2">
      <rect class="cls-2" width="1080" height="1080"/>
    </clipPath>
    <image id="image" width="6016" height="4016" xlink:href="../../../Volumes/4TB WD/PARA DISCO/Rayo Pudiente/HDD/vivid-blurred-colorful-wallpaper-background.jpg"/>
  </defs>
  <g class="cls-1">
    <use transform="translate(234.6 -696.7) rotate(90) scale(.3)" xlink:href="#image"/>
  </g>
  <g class="cls-4">
    <g class="cls-5">
      <use transform="translate(1334.6 -696.7) rotate(90) scale(.3)" xlink:href="#image"/>
    </g>
    <path class="cls-3" d="M245.7,612.5c0-56.2,0-99.2,0-155.3,0-11.3,0-26.1,17.9-35.1,21.9-12.9,24.4-14.2,38.1-21.3,5.3-2.7,6.9-6.1,6.8-11.7-.2-27.3-.1-47.6,0-74.9,0-21.5,10.5-27.2,30.2-27.2,27.3,0,38.7,0,66,.1,3,0,6,0,8.9.6,15.7,0,17.9,11.3,18.2,18.6.2,6.1,0,7.7.1,13.9,0,10.4.8,10.9,10.2,5.8,16.4-8.8,32.8-17.6,49.2-26.4,13.3-7.1,20.3-11,33.8-17.2,15.2-8,18.2-8,31.9,0,40.9,22,74.6,39.6,115.6,61.5,49.9,26.6,88.9,47.6,138.9,74.1,23.2,13.5,23.2,22.8,23.2,41.6-.1,111,0,218.4-.2,329.4.2,5-4.8,13.9-14.5,14.4-11.9,0-16-10.3-16-13.4,0-108,0-225.8,0-333.8,0-5.7-1.7-9-6.8-11.7-83.5-44.3-167-88.7-250.4-133.2-4.7-2.5-8.5-2.6-13.2,0-35.4,19-70.9,37.8-106.3,56.6-1,.6-2.1,1.1-3.2,1.6-12.7,6.1-22.1.6-22.5-13.7-.3-10.5-.3-21,0-31.5.1-5.3-1.7-7.4-7.2-7.3-16,.3-32.1,0-48.1,0-7.4,0-7.9.6-7.9,8.3,0,25.1-.3,50.3.1,75.4.2,10.2-3.4,16.7-12.6,21.3-14.5,7.2-28.6,15.2-43.1,22.6-4.6,2.4-6.5,5.4-6.5,10.7.1,102.3,0,204.6.1,306.9,0,7.5.3,8,7.7,7.5,68.2-4.1,134.7-15.9,197.1-45.2,9.3-4.4,18-9.8,26.9-15,7.3-4.2,7.2-5.4,1.3-11.1-14.7-14.1-29.9-27.8-43.8-42.6-20.9-22.3-40.3-46-50.9-75.2-8.9-24.5-11.6-49.8-3.1-75.1,10.5-31,41.2-49.4,73.7-45.5,21.8,2.6,39,12.1,51,30.6,3.1,4.8,4.6,4.8,8-.6,24.2-38.8,83.4-39.4,111.3-7.4,11.8,13.6,16.9,29.7,17.7,47.4,1.5,32.4-8.4,61.3-27.4,87.1-36.5,49.6-80,91.8-132.6,124.1-28.8,17.7-60.6,28.9-93.2,37.6-50.9,13.6-102.8,20.3-155.3,22.3-9.3.4-15.3-3.6-17.9-11.5-.9-2.7-1-5.8-1-8.8,0-56.2,0-112.4,0-168.6ZM643.6,536.6c-.5-4.5-.6-9.1-1.4-13.6-2.8-16.5-14.2-28.5-29.7-31.7-19.3-3.9-35,1.5-43.6,17-5.6,10.1-8.8,21.5-13.3,32.2-1.6,3.8-3.1,8-5.9,10.7-8.3,8.1-20.7,3.2-24.9-9.1-3.6-10.4-6.8-21.1-11.7-31-8.3-16.6-25.6-23.9-44.5-20.2-17,3.3-28.7,16.4-30.9,34.6-3,24.2,2.9,46.3,15.9,66.7,20.7,32.3,47.7,59,76.2,84.3,12,10.6,8.7,10.3,20.6-.1,25.6-22.5,49.6-46.6,69.6-74.4,14.1-19.6,23.5-40.7,23.7-65.4Z"/>
  </g>
</svg>